<?xml version="1.0" ?><svg width="512px" height="512px" viewBox="0 0 512 512" xmlns="http://www.w3.org/2000/svg"><defs><style>.e{fill:#f4c762;}.f{fill:#eab84b;}.g{fill:#2f8474;}.h{fill:#dfdfdf;}.i{fill:#41a08e;}.j{fill:#349381;}.k{fill:#365650;}</style></defs><g id="a"/><g id="b"/><g id="c"><g><path class="h" d="M382.31079,279.1554l-30.31079-15.1554,7.93843-11.90764c5.25655-7.88483,8.06157-17.14918,8.06157-26.62556v-9.46682c0-13.25482-10.74516-23.99998-23.99998-23.99998h-.00005c-13.25482,0-23.99998,10.74516-23.99998,23.99998v9.46682c0,9.47638,2.80502,18.74073,8.06157,26.62556l7.93843,11.90764-30.31082,15.15541c-10.8411,5.42055-17.68918,16.50097-17.68918,28.62169v60.2229h112v-60.22286c0-12.12074-6.84809-23.20118-17.68921-28.62174Z"/><path class="i" d="M344,176h0c-17.6731,0-32,14.3269-32,32v8h64v-8c0-17.6731-14.3269-32-32-32Z"/><rect class="g" height="8" width="16" x="336" y="196"/><path class="h" d="M206.31079,279.1554l-30.31079-15.1554,7.93843-11.90764c5.25655-7.88483,8.06157-17.14918,8.06157-26.62556v-9.46682c0-13.25482-10.74516-23.99998-23.99998-23.99998h-.00005c-13.25482,0-23.99998,10.74516-23.99998,23.99998v9.46682c0,9.47638,2.80502,18.74073,8.06157,26.62556l7.93843,11.90764-30.31082,15.15541c-10.8411,5.42055-17.68918,16.50097-17.68918,28.62169v60.2229h112v-60.22286c0-12.12074-6.84809-23.20118-17.68921-28.62174Z"/><path class="h" d="M302.31079,279.1554l-30.31079-15.1554,2.93262-5.86499c3.33252-6.66504,5.06738-14.01453,5.06738-21.46631v-12.6687c0-13.25488-10.74512-24-24-24s-24,10.74512-24,24v12.6687c0,7.45178,1.73486,14.80127,5.06738,21.46631l2.93262,5.86499-30.31079,15.1554c-10.84106,5.42053-17.68921,16.50098-17.68921,28.6217v76.2229c0,8.83655,7.16357,16,16,16h8v19.6333h80v-19.6333h8c8.83643,0,16-7.16345,16-16v-76.2229c0-12.12073-6.84814-23.20117-17.68921-28.6217Z"/><path class="i" d="M320,368v-60.2229c0-12.12073-6.84814-23.20117-17.68921-28.6217l-30.31079-15.1554-16,16-16-16-30.31079,15.1554c-10.84106,5.42053-17.68921,16.50098-17.68921,28.6217v60.2229h128Z"/><polygon class="g" points="272 264 256 280 280 296 298 277 272 264"/><polygon class="g" points="214 277 232 296 256 280 240 264 214 277"/><path class="h" d="M470.31079,263.1554l-30.31079-15.1554,6.59506-9.89271c6.1325-9.19886,9.40494-20.00712,9.40494-31.06274v-15.04459c0-17.67309-14.32687-31.99997-31.99997-31.99997h-.00006c-17.67309,0-31.99997,14.32687-31.99997,31.99997v15.04459c0,11.05562,3.27244,21.86387,9.40494,31.06274l6.59506,9.89271-30.31079,15.1554c-10.84112,5.42056-17.68921,16.50101-17.68921,28.62174v108.22286c0,8.83656,7.16344,16,16,16h8v80h80v-80h8c8.83656,0,16-7.16344,16-16v-108.22286c0-12.12074-6.84809-23.20118-17.68921-28.62174Z"/><path class="i" d="M470.31079,263.1554l-30.31079-15.1554-16,16-16-16-30.31079,15.1554c-10.84106,5.42053-17.68921,16.50098-17.68921,28.6217v92.2229h24v8h80v-8h24v-92.2229c0-12.12073-6.84814-23.20117-17.68921-28.6217Z"/><rect class="g" height="128" width="8" x="420" y="264"/><rect class="j" height="104" width="80" x="384" y="392"/><rect class="g" height="72" width="8" x="420" y="424"/><path class="i" d="M424,144c-22.09131,0-40,17.90857-40,40v16h80v-16c0-22.09143-17.90869-40-40-40Z"/><rect class="g" height="8" width="16" x="416" y="172"/><rect class="g" height="8" width="16" x="440" y="300"/><polygon class="g" points="466 261 440 248 424 264 448 280 466 261"/><polygon class="g" points="382 261 408 248 424 264 400 280 382 261"/><rect class="g" height="72" width="8" x="460" y="312"/><rect class="g" height="72" width="8" x="380" y="312"/><path class="h" d="M134.31079,263.1554l-30.31079-15.1554,6.59506-9.89271c6.1325-9.19886,9.40494-20.00712,9.40494-31.06274v-15.04459c0-17.67309-14.32687-31.99997-31.99997-31.99997h-.00006c-17.67309,0-31.99997,14.32687-31.99997,31.99997v15.04459c0,11.05562,3.27244,21.86387,9.40494,31.06274l6.59506,9.89271-30.31079,15.1554c-10.84112,5.42056-17.68921,16.50101-17.68921,28.62174v108.22286c0,8.83656,7.16344,16,16,16h8v80h80v-80h8c8.83656,0,16-7.16344,16-16v-108.22286c0-12.12074-6.84809-23.20118-17.68921-28.62174Z"/><path class="i" d="M256.02539,24c-39.77856,0-72.02539,32.24683-72.02539,72.02539s32.24683,72.02527,72.02539,72.02527,72.02539-32.24683,72.02539-72.02527-32.24707-72.02539-72.02539-72.02539Zm-54.01904,72.02539c0-26.76636,19.46729-48.98584,45.01562-53.27222l.00024,44.26904-37.12695,37.12622c-5.00488-8.19189-7.88892-17.82068-7.88892-28.12305Zm20.58862,42.43469l24.42725-24.42834,.00537,35.2666c-9.12231-1.52954-17.46973-5.34534-24.43262-10.83826Zm42.43359,10.83728v-35.26575l24.42749,24.42822c-6.96167,5.49182-15.30713,9.3075-24.42749,10.83752Zm37.12695-25.14893l-37.12695-37.12622-.00952-44.27051c25.55322,4.28223,45.02539,26.50391,45.02539,53.27368,0,10.30225-2.88428,19.93115-7.88892,28.12305Z"/><rect class="e" height="8" width="40" x="320" y="436"/><rect class="e" height="8" width="48" x="312" y="460"/><rect class="e" height="8" width="48" x="312" y="484"/><rect class="e" height="8" width="40" x="152" y="436"/><rect class="e" height="8" width="48" x="152" y="460"/><rect class="e" height="8" width="48" x="152" y="484"/><path class="i" d="M134.31079,263.1554l-30.31079-15.1554-16,16-16-16-30.31079,15.1554c-10.84106,5.42053-17.68921,16.50098-17.68921,28.6217v92.2229h24v8h80v-8h24v-92.2229c0-12.12073-6.84814-23.20117-17.68921-28.6217Z"/><rect class="g" height="128" width="8" x="84" y="264"/><rect class="j" height="104" width="80" x="48" y="392"/><rect class="g" height="72" width="8" x="84" y="424"/><path class="i" d="M88,144c-22.09131,0-40,17.90857-40,40v16h80v-16c0-22.09143-17.90869-40-40-40Z"/><rect class="g" height="8" width="16" x="80" y="172"/><rect class="g" height="8" width="16" x="104" y="300"/><path class="i" d="M256,184h0c-17.6731,0-32,14.3269-32,32v8h64v-8c0-17.6731-14.3269-32-32-32Z"/><rect class="g" height="88" width="8" x="252" y="280"/><rect class="g" height="8" width="16" x="248" y="204"/><path class="i" d="M168,176h0c-17.6731,0-32,14.3269-32,32v8h64v-8c0-17.6731-14.3269-32-32-32Z"/><rect class="g" height="8" width="16" x="160" y="196"/><polygon class="g" points="130 261 104 248 88 264 112 280 130 261"/><polygon class="g" points="46 261 72 248 88 264 64 280 46 261"/><rect class="g" height="72" width="8" x="124" y="312"/><rect class="g" height="72" width="8" x="44" y="312"/><rect class="j" height="56" width="80" x="216" y="368"/><polygon class="f" points="314.24683 419.63326 268.94501 419.63326 256 378.54906 243.05499 419.63326 197.75317 419.63326 233.7777 447.22818 219.45871 488 256 462.88802 292.54129 488 278.2223 447.22818 314.24683 419.63326"/><rect class="g" height="56" width="8" x="212" y="312"/><rect class="g" height="56" width="8" x="292" y="312"/><path class="k" d="M256.02539,172.05078c41.9209,0,76.02539-34.10498,76.02539-76.02539s-34.10449-76.02539-76.02539-76.02539-76.02539,34.10498-76.02539,76.02539,34.10449,76.02539,76.02539,76.02539Zm0-144.05078c37.50977,0,68.02539,30.51611,68.02539,68.02539s-30.51562,68.02539-68.02539,68.02539-68.02539-30.51611-68.02539-68.02539,30.51562-68.02539,68.02539-68.02539Z"/><path class="k" d="M209.89551,128.14844c1.05469,0,2.07422-.41699,2.82812-1.17139l37.12695-37.12646c.75-.75049,1.17188-1.76758,1.17188-2.82861l-.00098-44.26855c0-1.17676-.51758-2.29346-1.41602-3.05371-.89746-.75928-2.08203-1.08691-3.24609-.89111-28.01758,4.70068-48.35352,28.76367-48.35352,57.2168,0,10.68604,2.93066,21.13232,8.47656,30.2085,.63867,1.04639,1.72266,1.7417,2.94043,1.88672,.1582,.01855,.31543,.02783,.47266,.02783Zm-3.88965-32.12305c0-22.92236,15.30469-42.53906,37.01562-48.31836l.00098,37.6582-32.16797,32.16748c-3.18359-6.68311-4.84863-14.02588-4.84863-21.50732Z"/><path class="k" d="M262.2002,89.85059l37.12695,37.12646c.75391,.75439,1.77344,1.17139,2.82812,1.17139,.15723,0,.31445-.00928,.47266-.02783,1.21777-.14502,2.30176-.84033,2.94043-1.88672,5.54492-9.0752,8.47559-19.521,8.47559-30.2085,0-28.45801-20.33984-52.52197-48.36328-57.21875-1.15918-.19678-2.34766,.13184-3.24512,.8916-.89844,.76025-1.41602,1.87744-1.41602,3.0542l.00879,44.27051c0,1.06055,.42188,2.07764,1.17188,2.82764Zm43.84375,6.1748c0,7.48193-1.66504,14.82471-4.84766,21.50732l-32.16797-32.16797-.00781-37.66064c21.71582,5.77686,37.02344,25.39502,37.02344,48.32129Z"/><path class="k" d="M248.55273,110.33594c-1.49512-.61816-3.21484-.27734-4.3584,.86719l-24.42773,24.42822c-.80859,.80811-1.23242,1.92285-1.16504,3.06348s.61914,2.19775,1.51562,2.90527c7.62598,6.0166,16.70312,10.04297,26.24902,11.64307,.21973,.03711,.44141,.05518,.66113,.05518,.93945,0,1.85645-.33105,2.58398-.94678,.89844-.76025,1.41602-1.87744,1.41602-3.05371l-.00488-35.2666c0-1.61768-.97461-3.07617-2.46973-3.69531Zm-19.80078,27.62402l14.27148-14.27246,.00293,20.6499c-5.0498-1.35986-9.87891-3.5166-14.27441-6.37744Z"/><path class="k" d="M267.85645,111.20312c-1.14355-1.14355-2.86523-1.48584-4.3584-.8667-1.49512,.61914-2.46973,2.07764-2.46973,3.69531v35.26562c0,1.17676,.51758,2.29346,1.41602,3.05371,.72754,.61523,1.64453,.94629,2.58398,.94629,.21973,0,.44141-.01807,.66211-.05518,9.54297-1.60107,18.61719-5.62646,26.24316-11.6416,.89648-.70752,1.44824-1.76514,1.51562-2.90576s-.35645-2.25537-1.16504-3.06348l-24.42773-24.42822Zm1.17188,33.13281v-20.64697l14.27051,14.27051c-4.39551,2.86035-9.22168,5.0166-14.27051,6.37646Z"/><rect class="k" height="8" width="40" x="320" y="436"/><rect class="k" height="8" width="48" x="312" y="460"/><rect class="k" height="8" width="48" x="312" y="484"/><rect class="k" height="8" width="40" x="152" y="436"/><rect class="k" height="8" width="48" x="152" y="460"/><rect class="k" height="8" width="48" x="152" y="484"/><path class="k" d="M472.09961,259.57764l-26.25781-13.12891,4.08105-6.12207c6.59277-9.88867,10.07715-21.39746,10.07715-33.28223v-3.04443h4c2.20898,0,4-1.79102,4-4v-16c0-24.26172-19.73828-44-44-44s-44,19.73828-44,44v16c0,2.20898,1.79102,4,4,4h4v3.04443c0,11.88477,3.48438,23.39355,10.07715,33.28223l4.08105,6.12207-26.25781,13.12891c-3.67456,1.83728-6.92188,4.2395-9.68311,7.05884l-8.37549-4.18774,5.4248-8.1377c5.71387-8.56934,8.7334-18.54346,8.7334-28.84424v-5.4668h4c2.20898,0,4-1.79102,4-4v-8c0-19.85059-16.14941-36-36-36s-36,16.14941-36,36v8c0,2.20898,1.79102,4,4,4h4v5.4668c0,10.30029,3.01953,20.2749,8.7334,28.84424l5.4248,8.1377-26.1582,13.0791-26.63379-13.31689,1.14453-2.2876c3.59082-7.18359,5.48926-15.2251,5.48926-23.25439v-8.66895h4c2.20898,0,4-1.79102,4-4v-8c0-19.85059-16.14941-36-36-36s-36,16.14941-36,36v8c0,2.20898,1.79102,4,4,4h4v8.66895c0,8.0293,1.89844,16.0708,5.48926,23.25488l1.14453,2.28711-26.63379,13.31689-26.1582-13.0791,5.4248-8.1377c5.71387-8.56934,8.7334-18.54346,8.7334-28.84424v-5.4668h4c2.20898,0,4-1.79102,4-4v-8c0-19.85059-16.14941-36-36-36s-36,16.14941-36,36v8c0,2.20898,1.79102,4,4,4h4v5.4668c0,10.30078,3.01953,20.2749,8.7334,28.84424l5.4248,8.1377-8.37549,4.18774c-2.76123-2.81934-6.00854-5.22156-9.68311-7.05884l-26.25781-13.12891,4.08105-6.12207c6.59277-9.88867,10.07715-21.39746,10.07715-33.28223v-3.04443h4c2.20898,0,4-1.79102,4-4v-16c0-24.26172-19.73828-44-44-44s-44,19.73828-44,44v16c0,2.20898,1.79102,4,4,4h4v3.04443c0,11.88477,3.48438,23.39355,10.07715,33.28223l4.08105,6.12207-26.25781,13.12891c-12.27539,6.1377-19.90039,18.47559-19.90039,32.19922v108.22314c0,11.02783,8.97168,20,20,20h4v76h8v-100H124v100h8v-76h4c11.02832,0,20-8.97217,20-20v-108.22314c0-6.76379-1.85962-13.18652-5.20776-18.70081l10.99683-5.49841c1.02637-.51318,1.78223-1.44189,2.07715-2.55078,.29395-1.10889,.09863-2.29102-.53809-3.24561l-7.93848-11.90771c-4.83398-7.25146-7.38965-15.69092-7.38965-24.40674v-5.4668h40v5.4668c0,8.71582-2.55566,17.15527-7.38965,24.40674l-7.93848,11.90771c-.63672,.95459-.83203,2.13672-.53809,3.24561,.29492,1.10889,1.05078,2.0376,2.07715,2.55078l26.13281,13.06641c-7.75928,6.72949-12.34375,16.50879-12.34375,27.13281v76.22314c0,11.02783,8.97168,20,20,20h4v11.6333h-14.24707c-1.71387,0-3.23828,1.09229-3.78809,2.71582-.55078,1.62354-.00488,3.41699,1.35547,4.45947l33.72168,25.83105-13.35742,38.03516c-.57324,1.63281-.03125,3.44971,1.34375,4.50195,1.375,1.05127,3.27051,1.10107,4.69629,.11963l34.27539-23.55469,34.27539,23.55469c.68359,.47021,1.47559,.70361,2.26562,.70361,.8584,0,1.71484-.27588,2.43066-.82324,1.375-1.05225,1.91699-2.86914,1.34375-4.50195l-13.35742-38.03516,33.72168-25.83105c1.36035-1.04248,1.90625-2.83594,1.35547-4.45947-.5498-1.62354-2.07422-2.71582-3.78809-2.71582h-14.24707v-11.6333h4c11.02832,0,20-8.97217,20-20v-76.22314c0-10.62402-4.58447-20.40332-12.34375-27.13281l26.13281-13.06641c1.02637-.51318,1.78223-1.44189,2.07715-2.55078,.29395-1.10889,.09863-2.29102-.53809-3.24561l-7.93848-11.90771c-4.83398-7.25146-7.38965-15.69092-7.38965-24.40674v-5.4668h40v5.4668c0,8.71582-2.55566,17.15527-7.38965,24.40674l-7.93848,11.90771c-.63672,.95459-.83203,2.13672-.53809,3.24561,.29492,1.10889,1.05078,2.0376,2.07715,2.55078l10.99683,5.49841c-3.34814,5.51428-5.20776,11.93701-5.20776,18.70081v108.22314c0,11.02783,8.97168,20,20,20h4v76h8v-100h72v100h8v-76h4c11.02832,0,20-8.97217,20-20v-108.22314c0-13.72363-7.625-26.06152-19.90039-32.19922Zm-348.71387,2.5874l-11.97168,12.63721-17.13574-11.42383,10.51147-10.51147,18.59595,9.2981ZM52,184c0-19.85059,16.14941-36,36-36s36,16.14941,36,36v12H52v-12Zm8,23.04443v-3.04443h56v3.04443c0,10.30029-3.01953,20.27441-8.7334,28.84473l-6.375,9.5625-12.8916,12.8916-12.8916-12.8916-6.375-9.5625c-5.71387-8.57031-8.7334-18.54443-8.7334-28.84473Zm11.21021,45.82251l10.51147,10.51135-17.14258,11.42834-12.00928-12.61938,18.64038-9.32031Zm-31.21021,159.13306c-6.61719,0-12-5.3833-12-12v-12h16v24h-4Zm4-100v68H28v-88.22314c0-10.67383,5.93066-20.27002,15.47852-25.04395l1.60791-.80396,16.01611,16.82886c.77832,.81836,1.83398,1.24219,2.89941,1.24219,.7666,0,1.53906-.22021,2.2168-.67188l17.78125-11.85425v116.52612H52v-76h-8Zm48,76v-116.52612l17.78125,11.85425c.67773,.45166,1.4502,.67188,2.2168,.67188,1.06836,0,2.12695-.42627,2.90625-1.24902l15.95996-16.84668,1.65723,.82861c9.54785,4.77393,15.47852,14.37012,15.47852,25.04395v88.22314h-16v-68h-8v76h-32Zm44,24h-4v-24h16v12c0,6.6167-5.38281,12-12,12Zm4-204c0-15.43945,12.56055-28,28-28s28,12.56055,28,28v4h-56v-4Zm151.38574,70.16504l-11.97168,12.63721-17.13574-11.42383,10.51147-10.51147,18.59595,9.2981Zm-63.38574-62.16504c0-15.43945,12.56055-28,28-28s28,12.56055,28,28v4h-56v-4Zm48,12v8.66895c0,6.79443-1.60645,13.59863-4.64551,19.67676l-2.64307,5.28613-12.71143,12.71143-12.71143-12.71143-2.64307-5.28564c-3.03906-6.07861-4.64551-12.88281-4.64551-19.67725v-8.66895h40Zm-36.78979,40.86694l10.51147,10.51147-17.13574,11.42383-11.97168-12.63721,18.59595-9.2981Zm-27.73169,13.86597l1.65723-.82861,15.95996,16.84668c.78027,.82275,1.83789,1.24902,2.90625,1.24902,.7666,0,1.53906-.22021,2.2168-.67188l17.78125-11.85425v76.52612h-32v-52h-8v52h-16v-56.22314c0-10.67383,5.93066-20.27002,15.47852-25.04395Zm-3.47852,113.26709c-6.61719,0-12-5.3833-12-12v-12h16v24h-4Zm67.79004,48.05273c-1.37305,1.05225-1.91504,2.86816-1.3418,4.50049l10.25781,29.20898-26.44043-18.17041c-.68262-.46924-1.47363-.70361-2.26562-.70361s-1.58301,.23438-2.26562,.70361l-26.44043,18.17041,10.25781-29.20898c.57324-1.63232,.03125-3.44824-1.3418-4.50049l-26.65723-20.41943h33.50195c1.74609,0,3.29004-1.13232,3.81543-2.79785l9.12988-28.97656,9.12988,28.97656c.52539,1.66553,2.06934,2.79785,3.81543,2.79785h33.50195l-26.65723,20.41943Zm-3.91113-28.41943l-12.06348-38.28662c-.52539-1.66553-2.06934-2.79785-3.81543-2.79785s-3.29004,1.13232-3.81543,2.79785l-12.06348,38.28662h-20.12109v-43.6333h72v43.6333h-20.12109Zm32.12109-19.6333h-4v-24h16v12c0,6.6167-5.38281,12-12,12Zm12-88.22314v56.22314h-16v-52h-8v52h-32v-76.52612l17.78125,11.85425c.67773,.45166,1.4502,.67188,2.2168,.67188,1.06836,0,2.12695-.42627,2.90625-1.24902l15.95996-16.84668,1.65723,.82861c9.54785,4.77393,15.47852,14.37012,15.47852,25.04395Zm0-99.77686c0-15.43945,12.56055-28,28-28s28,12.56055,28,28v4h-56v-4Zm143.38574,54.16504l-11.97168,12.63721-17.13574-11.42383,10.51147-10.51147,18.59595,9.2981Zm-71.38574-78.16504c0-19.85059,16.14941-36,36-36s36,16.14941,36,36v12h-72v-12Zm8,23.04443v-3.04443h56v3.04443c0,10.30029-3.01953,20.27441-8.7334,28.84473l-6.375,9.5625-12.8916,12.8916-12.8916-12.8916-6.375-9.5625c-5.71387-8.57031-8.7334-18.54443-8.7334-28.84473Zm11.21021,45.82251l10.51147,10.51135-17.14258,11.42834-12.00928-12.61938,18.64038-9.32031Zm-31.21021,159.13306c-6.61719,0-12-5.3833-12-12v-12h16v24h-4Zm4-100v68h-16v-88.22314c0-10.67383,5.93066-20.27002,15.47852-25.04395l1.60791-.80396,16.01611,16.82886c.77832,.81836,1.83398,1.24219,2.89941,1.24219,.7666,0,1.53906-.22021,2.2168-.67188l17.78125-11.85425v116.52612h-32v-76h-8Zm48,76v-116.52612l17.78125,11.85425c.67773,.45166,1.4502,.67188,2.2168,.67188,1.06836,0,2.12695-.42627,2.90625-1.24902l15.95996-16.84668,1.65723,.82861c9.54785,4.77393,15.47852,14.37012,15.47852,25.04395v88.22314h-16v-68h-8v76h-32Zm44,24h-4v-24h16v12c0,6.6167-5.38281,12-12,12Z"/><rect class="k" height="72" width="8" x="420" y="424"/><rect class="k" height="8" width="16" x="416" y="172"/><rect class="k" height="8" width="16" x="440" y="300"/><rect class="k" height="72" width="8" x="84" y="424"/><rect class="k" height="8" width="16" x="80" y="172"/><rect class="k" height="8" width="16" x="104" y="300"/><rect class="k" height="8" width="16" x="336" y="196"/><rect class="k" height="8" width="16" x="248" y="204"/><rect class="k" height="8" width="16" x="160" y="196"/></g></g><g id="d"/></svg>