<?xml version="1.0" encoding="UTF-8"?>
<svg enable-background="new 0 0 137.829 137.787" viewBox="0 0 137.829 137.787" xmlns="http://www.w3.org/2000/svg">
 <defs>
  <radialGradient id="a" cx="68.929" cy="68.87" r="64.054" gradientUnits="userSpaceOnUse">
   <stop stop-color="#d4e4f7" offset="0"/>
   <stop stop-color="#7fb5f7" offset="1"/>
  </radialGradient>
 </defs>
 <path d="m0 68.871c0 35.113 27.543 65.416 62.537 68.633 35.007 3.221 67.765-21.396 74.17-56.017 6.402-34.611-15.202-69.478-49.123-78.99-33.933-9.515-70.598 8.96-83.112 41.899-2.965 7.801-4.472 16.13-4.472 24.475" fill="#5471af"/>
 <path d="m4.875 68.871c0 34.907 29.146 64.053 64.053 64.053s64.054-29.146 64.054-64.053-29.146-64.054-64.054-64.054-64.053 29.146-64.053 64.054" fill="url(#a)"/>
 <path d="m11.052 43.973c-5.174 30.165 12.842 60.467 41.812 70.339 30.729 10.469 65.307-5.005 78.158-34.77-6.176 36.021-43.212 59.701-78.5 50.178-36.435-9.833-56.487-51.005-41.47-85.747" fill="#68a0f2"/>
 <path d="m28.922,40.437c8.858,1.832 19.056-10.717 26.738-13.909 14.351-5.965 32.277-3.196 45.275,4.927 13.751,8.592 23.531,25.095 25.036,41.294 .004.046.004.055 0,.024-1.016-9.81-.33-19.031-4.062-28.514-6.192-15.718-19.578-28.025-35.72-32.97-16.685-5.112-34.933-1.859-49.307,7.882-4.439,3.01-21.528,18.456-7.96,21.266" fill="#b3e7fc"/>
 <path d="m67.116,36.008v13.08c0,5.161.329,4.577-4.778,4.577-6.6,0-26.529-3.627-26.529,6.891 0,6.53-3.526,25.835 6.788,25.835 2.956,0 24.519-.711 24.519.658v15.12c0,4.621 4.771,9.062 8.994,4.851l19.422-19.356c4.023-4.011 19.877-15.262 13.126-22.041-4.942-6.745-12.517-12.528-18.417-18.431l-12.142-12.151c-2.803-2.807-10.983-5.902-10.983.967" fill="#fff"/>
 <path d="m69.556,31.397c-5.067,2.091-3.349,10.466-3.349,14.758v6.601h-6.507c-8.849,0-24.8-3.505-24.8,9.325 0,7.842-3.53,25.218 8.38,25.218h16.417 6.154c.737,0 .355,5.618.355,6.438 0,3.759-1.422,11.505 1.957,14.28 4.292,3.524 8.198.035 11.159-2.916l23.639-23.561c5.424-5.406 12.105-10.791 4.822-18.079-7.646-7.652-15.292-15.305-22.939-22.957-3.79-3.795-8.988-11.714-15.288-9.107m-32.838,48.662c0-5.372-3.329-25.485 5.424-25.485 7.778-1.747 17.765,0 25.771,0 2.799,0-5.695-25.249 6.098-21.721 2.343.701 4.5,3.885 6.11,5.497l12.659,12.67c3.661,3.663 19.029,14.639 16.418,21.124-1.003,2.493-4.069,4.67-5.884,6.479l-12.657,12.616c-3.491,3.478-14.159,18.52-20.357,15.954-6.246-2.589 1.604-21.712-3.924-21.712-5.572.001-29.658,3.699-29.658-5.422" fill="#5471af"/>
</svg>
